<?xml version="1.0" encoding="UTF-8"?>
<svg id="Layer_3" data-name="Layer 3" xmlns="http://www.w3.org/2000/svg" viewBox="0 0 843.64 407.83">
  <defs>
    <style>
      .cls-1 {
        fill: #606161;
        stroke: #fff;
        stroke-miterlimit: 10;
        stroke-width: .5px;
      }

      .cls-1, .cls-2 {
        fill-rule: evenodd;
      }

      .cls-2 {
        fill: #afadae;
        stroke-width: 0px;
      }
    </style>
  </defs>
  <path class="cls-2" d="M520,314.1l-.77-.47c-3.04-1.85-6.7-1.9-9.7-.43l-1.68-1.02c-4.45-2.7-10.23-1.54-13.3,2.66q-3.75,5.16-8.47,11.63c-.17.24-.33.46-.46.65-.99-.15-2.03-.12-3.06.14-4.39,1.07-10.49,2.56-15.86,3.88-8.09,1.98-15.01,7.18-19.16,14.41-6.97,12.14-17.38,30.28-17.38,30.28-.28.48-.29,1.07-.04,1.56.26.5.74.83,1.29.89l35.73,3.7c.69.07,1.36-.3,1.65-.93,0,0,1.67-3.53,3.54-7.47,3.05-6.43,8.56-11.36,15.29-13.68,5.34-1.84,11.43-3.95,15.52-5.36,3.37-1.16,6.29-3.36,8.33-6.28,4.96-7.08,15.12-21.59,19.94-28.47.95-1.35,1.29-3.04.95-4.65s-1.33-3.02-2.74-3.87h0c-2.96-1.8-6.81-1.03-8.85,1.77l-.77,1.05ZM491.66,337.85c-.16.38-.34.76-.56,1.11-1.08,1.78-2.82,3.05-4.84,3.55-5.95,1.45-8.76,2.14-8.76,2.14-.88.21-7.17.99-7.39.11-.22-.88,2.05-.16,2.93-.37,0,0,8.17-2.43,12.44-5.08,1.27-.58,2.76-1.05,3.66-1.96,1.59-.84,1.22-3.18.93-4.36,0,0,0,0,0,0-.6-2.44-4.32-3.13-6.76-2.53l-15.86,3.88c-7.21,1.76-13.39,6.41-17.09,12.85l-17.48,28.77,34.11,4,2.36-7.78c3.43-7.23,9.62-12.77,17.18-15.38,5.34-1.84,14.11-4.33,18.24-6.29,2.72-.94,3.62-2.06,5.27-4.41l18.66-28.18c.43-.61,1.47-2.48,1.31-3.21-.15-.73-.52-1.52-1.16-1.9l-.41-.31c-2.51-.26-3.07-.02-5.04,1.8l-10.42,14.95c-1.95,2.67-4.83,3.86-8.04,4.64-5.18,1.27-13.06,3.91-13.06,3.91-.08.02-.16.03-.23.04h0ZM492.8,334.2l14.3-19.64-.74-.64c-3-1.82-7.09.05-9.16,2.88l-8.43,11.58c1.57,1.05,2.77,2.67,3.25,4.65l.21,1.32.57-.14ZM510.35,327.32l8.4-11.59-1.17-.54c-3.73-1.3-7.01.21-9.09,3.07l-10.74,14.74,6.49-1.59c2.46-.6,4.63-2.05,6.12-4.09h0Z"/>
  <path class="cls-2" d="M353.79,327.04c-.03-.24-.12-.48-.26-.69,0,0-4.47-6.65-8.03-11.94-2.91-4.32-8.64-5.7-13.19-3.16h0c-.52.29-.96.7-1.29,1.19-3.01-1.81-6.87-1.99-10.13-.18h0c-.27.15-.51.33-.73.53l-.79-1.17c-1.93-2.88-5.75-3.79-8.78-2.1h0c-1.44.81-2.49,2.17-2.89,3.77-.4,1.6-.12,3.3.77,4.69l18.85,29.2c1.93,3,4.76,5.3,8.09,6.59,4.03,1.57,10.04,3.9,15.31,5.94,6.63,2.57,11.95,7.71,14.76,14.25,1.72,4.01,3.26,7.59,3.26,7.59.27.64.92,1.04,1.62.99l35.85-2.35c.56-.04,1.05-.35,1.33-.84.27-.48.28-1.07.02-1.57,0,0-9.72-18.52-16.22-30.92-3.87-7.38-10.59-12.84-18.6-15.12-5.32-1.52-11.36-3.24-15.7-4.47-1.08-.31-2.18-.37-3.23-.23h0ZM347.51,337.48c-.08,0-.16-.02-.23-.05,0,0-5.73-1.63-10.86-3.09-3.18-.9-8.06-3.51-9.91-6.25l-8.31-13.8c-2.08-2.24-4.58-4.13-6.12-3.28h0c-.65.36-2.3,1.04-2.03,2.52-.18.72.77,2.02,1.17,2.64l17.65,29.73c1.56,2.41,4.49,4.85,7.17,5.89,4.03,1.56,10.59,2.8,15.85,4.84,7.46,2.89,13.44,8.67,16.59,16.02l2.12,7.89,34.47-1.89-15.67-30c-3.45-6.58-5.94-11.58-17.41-14.68l-15.88-3.54c-2.41-.69-3.26-.54-5.36,1.26,0,0-1.63,1.59-1.63,1.59-.33,1.16-.27,2.11.32,3.16.59,1.05,3.77,3.4,4.93,3.73,5.89,1.68,12.77,4.6,12.77,4.6.87.25,1.87-.44,1.63.43-.25.87-3.3.21-4.17-.04,0,0-5.99-1.15-11.88-2.83-2-.57-3.69-1.91-4.7-3.73-.2-.37-.38-.74-.52-1.14h0ZM332.92,313.62c-.03.13.75,1.05.82,1.16l2.27,3.39,10.51,15.63.57.16.26-1.31c.56-1.96,1.82-3.53,3.43-4.52h0s-7.99-11.89-7.99-11.89c-1.95-2.91-6.34-5.04-9.41-3.33M321.71,314.59c-.04.14.5,1.16.58,1.28l6.94,10.38c1.41,2.1,3.53,3.63,5.96,4.32l6.42,1.83-10.17-15.13c-1.97-2.94-6-4.86-9.09-3.14"/>
  <path class="cls-1" d="M540.83,288.13c-.95-4.22-2.08-8.37-2.96-12.58-1.68-8.52-3.13-17.14-5.34-25.55-1.74-6.4-4.47-12.41-7.05-18.33-1.48-3.4-4.76-4.16-8.61-3.24-2.54.61-5.08,1.59-7.62,2.18-5.82,1.35-11.67,2.89-17.5,4.25-3.23.75-6.59,2.64-9.69,1.74-4.88-1.41-9.99-2.4-14.81-4-4.43-1.47-9.02-1.72-14.32-.23-7.31,1.73-15.86,5.45-21.42,10.62-1.75,1.58-3.45,3.17-5.26,4.76-2.13-7.06-2.24-7.64-8.74-11.78-10.15-5.13-16.41-6.96-27.73-7.37-5.6.43-10.82,1.77-16.24,2.47-1.17.15-2.6.38-3.73-.23-7.31-3.97-15.88-6.44-23.89-8.52-4.86-1.43-9.73-2.59-14.62-3.72-5.13-1.18-6.04-1.46-6.92,3.9-.1.6-.34,1.15-.48,1.74-2.92,11.32-5.96,22.64-7.24,34.29-1.34,12.67-2.82,25.32-4.34,37.98-.41,3.4-1.14,6.77-1.71,10.11,2.95,2.79,6.43,2.88,9.89,3.17,6.05.51,12.07,1.36,18.05,2.92,8.5,2.24,16.9,5.31,25.12,8.4,14.36,5.21,28.56,10.02,43.42,13.59.59.12,1.23.34,1.76.68,4.62,2.91,9.43,3.68,14.43,2.69,1.2-.24,2.46-.37,3.69-.38,4.24,0,5.31-.96,6.33-5.12,6.31-.96,12.61-2.41,18.93-4.3,5.18-1.56,10.37-3.54,15.58-5.44,3.8-1.39,7.62-2.69,11.44-4.05,3.57-1.27,7.15-2.58,10.72-3.75,7-2.29,13.99-3.66,20.96-6.44,2.59-1.03,5.31-1.16,7.97-1.63,7.04-1.26,13.85-1.34,20.49-3.07,1.02-.27,2.04-.57,3.06-.93-.08-4.96-.53-10.04-1.62-14.85,0,0,0,0,0,0ZM535.46,300.02c-2.67,2.31-7.74,2.91-10.94,3.37-7.63,1.05-15.42,2.73-22.8,4.92-8.5,2.46-16.91,5.36-25.27,8.28-9.77,3.26-19.56,6.46-29.32,9.76-3.73,1.3-7.56,1.83-11.33,2.31-2.88.37-5.49.91-7.15,3.68-.19.32-.44.65-.73.88-2.62,2.15-12.63,2.26-15.34,0-1.64-1.37-3.24-1.85-5.18-2-2.18-.17-4.39-.81-6.58-1.38-13.47-3.92-26.51-8.71-39.64-13.63-7.14-2.65-14.3-5.17-21.49-7.16-5.22-1.45-10.47-2.47-15.75-3.26-1.92-.29-3.84-.68-6.2-.99.27-6.39.23-12.11.81-17.72,1.07-9.41,2.28-18.77,3.59-28.15.74-5.19,1.75-10.31,2.85-15.37,1.17-5.42,2.61-10.72,3.84-16.08.34-1.5.38-3.12.59-5.06,11.97,1.72,23.57,4.96,35.19,8.25.03.3.06.6.09.9-10.16-1.12-20.15-2.73-30.25-4.34-1.89,12.28-3.78,24.56-5.54,36.86-1.08,7.73-1.85,15.54-2.41,23.33-.15,1.94.73,4.16,1.33,6.23.19.64,1.07,1.7,1.51,1.72,2.42.08,3.81,2.38,5.73,3.39,2.06,1.09,4.35,1.55,6.54,2.26,6.96,2.23,13.93,4.41,20.68,5.05,5.16.49,10.16.14,15.14-.18,4.3-.28,8.36-1.38,12.73-1.6,6.56-.33,12.48,3.07,17.74,8.19,1.81,1.76,3.39,3.72,4.81,5.92-1.57-1.14-3.15-2.29-4.7-3.51-5.8-4.78-16.31-7.68-23.6-4.87-2.21.97-4.44,1.41-7.28.76-11.25-2.62-22.5-5.3-33.92-7.11-2.61-.4-5.17-.24-7.8.49.45.35.9.93,1.35,1.03,7.84,1.98,15.68,4.22,23.65,5.63,6.58,1.11,13.24,2.92,19.88,4.48,2.92.68,5.43.48,7.56-.92,2.62-1.73,5.64-2.36,9.26-1.12,2.02.69,4.12,1.47,5.99,2.62,2.01,1.24,3.81,2.94,5.65,4.46,4.75,3.93,5.5,4.05,10.58.75-3.06-3.77-5.89-7.82-9.14-11.63-6.31-7.07-16.24-11.52-25.77-9.88-6.15,1.4-12.31,2.47-18.93,2.51-8.07.04-17.06-2.5-24.51-5.39-2.4-.84-4.8-1.7-7.61-2.58.83-10.63,1.68-21.24,2.75-31.85,1.4-10.29,3.03-20.52,4.67-30.78,2.41.56,5.18,1.42,7.92,1.97,8.06,1.85,17.21,3.19,25.5,2.59,2.03-.15,3.95-.62,5.87-1.08,5.37-1.27,11.07-1.71,17-1.74,6.54-.03,12.89,2.18,18.96,5.78,2.01,1.19,3.13,2.82,3.58,5.12.46,2.32,1.36,4.56,2.01,6.84.23.82.41,1.7.4,2.54-.25,12.57-.52,25.14-.76,37.72-.17,9.08-.3,18.15-.37,27.23-.01,1.85.29,3.72.52,5.57.08.6.44,1.17.62,1.77.4,1.33,1.36,1.77,2.6,1.61,1.5-.19,1.62-1.36,1.56-2.54-.15-2.98-.58-5.97-.45-8.93.65-14.04,1.38-28.08,2.1-42.12.07-1.37.03-2.74-.02-4.1-.18-4.98-.34-9.95-.6-14.92-.08-1.46-.47-2.9-.76-4.63,4.33-.33,7.37-3.8,10.88-6.4,7.69-4.52,15.3-8.74,24.67-7.34,4.32.48,8.21,2.07,12.29,3.1,4.2,1.06,8.3,2.32,12.61,3.12,6.75,1.25,13.96,1.11,21.48,0,3.07-.45,3.21-.24,4.07,2.44,1.5,4.65,3.34,9.15,4.6,13.94,1.88,7.21,3.34,14.63,5.06,21.97.84,3.59,1.89,7.11,2.93,11.01-3.87,1.54-7.76,2.17-11.62,3.16-12.95,2.87-25.46,4.48-38.71,5-3.17.04-6.37.14-9.55.14-5.6,0-10.87,2.54-15.89,5.95-2.6,1.77-5.01,3.84-7.42,5.79-.92.75-1.9,1.72-2.34,2.74-1.79,4.11-4.96,5.71-8.89,5.88-.24,0-.49.11-.72.2-.11.04-.19.16-.48.41,1.69,1.09,3.28,2.23,5.02,3.07,2.62,1.26,4.32.63,6.16-2.05.83-1.21,1.5-2.53,2.32-3.75.95-1.42,2.07-2.55,4.05-1.64-1.03,1.37-1.95,2.6-3.37,4.48,1.34-.53,2.11-.73,2.77-1.14,2.32-1.44,4.54-3.14,6.92-4.55,3.32-1.97,6.64-2.89,9.94-2.1,2.86.69,5.79-.47,8.69-2.54-.15-.54-.15-.94-.27-.95-3.12-.07-6.19-.53-9.39-.16-3.89.45-7.83,1.98-11.45,4.53-1.54,1.09-2.61,1.21-3.3-.64,6.6-4.31,13.07-7.95,20.52-7.87,8.35.13,16.92-.47,25.2-1.49,8.54-.8,17.6-2.26,25.76-4.94,3.84-1.24,7.81-1.56,11.64-1.87.32-6.14-2.57-12.11-3.85-17.88-1.4-6.32-2.53-12.72-3.71-19.08-1.12-6.02-3.01-11.74-4.5-17.58-.19-.73-.32-1.66-.02-2.38.82-1.92-.24-2.27-1.54-2.34-2.68-.14-5.4-.07-8.1-.06-4.79.03-9.59.2-14.4.42-.44.02-.84-.13-1.26-.19.04-.18.07-.36.11-.54,4.5-1.17,8.99-2.27,13.48-3.3,3.42-.79,6.84-1.54,10.25-2.25,2.71-.57,3.18-.35,4.17,2.02,1.53,3.66,3.29,7.23,4.58,11.04,1.11,3.25,1.91,6.68,2.49,10.15,2.4,12.94,5.41,25.67,8.63,38.43.71,2.78-.04,4.63-1.51,5.91h0Z"/>
</svg>