<?xml version="1.0" encoding="UTF-8"?>
<svg id="Layer_1" data-name="Layer 1" xmlns="http://www.w3.org/2000/svg" viewBox="0 0 595.28 841.89">
  <defs>
    <style>
      .cls-1 {
        fill: #848484;
        stroke: #848484;
      }

      .cls-1, .cls-2, .cls-3, .cls-4, .cls-5 {
        stroke-miterlimit: 10;
      }

      .cls-2 {
        fill: #3a3a3a;
        stroke: #3a3a3a;
      }

      .cls-3, .cls-4 {
        stroke: #fff;
      }

      .cls-3, .cls-6 {
        fill: #515251;
      }

      .cls-4 {
        stroke-width: .75px;
      }

      .cls-4, .cls-7 {
        fill: #565656;
        fill-rule: evenodd;
      }

      .cls-7, .cls-6, .cls-8 {
        stroke-width: 0px;
      }

      .cls-5 {
        fill: #c2c1c0;
        stroke: #c2c1c0;
        stroke-width: 3px;
      }

      .cls-8 {
        fill: #fff;
      }
    </style>
  </defs>
  <path class="cls-7" d="M390.7,278.13l-.79-.48c-3.12-1.9-6.87-1.95-9.95-.44l-1.72-1.04c-4.57-2.77-10.5-1.58-13.65,2.73q-3.85,5.29-8.69,11.93c-.18.25-.34.47-.47.67-1.01-.16-2.08-.12-3.14.14-4.5,1.1-10.76,2.63-16.27,3.98-8.3,2.03-15.4,7.37-19.65,14.78-7.15,12.46-17.82,31.07-17.82,31.07-.28.49-.3,1.1-.04,1.61.26.51.76.85,1.33.91l36.65,3.79c.71.08,1.39-.31,1.7-.95,0,0,1.72-3.62,3.63-7.66,3.13-6.59,8.78-11.66,15.68-14.04,5.47-1.89,11.73-4.05,15.92-5.5,3.46-1.19,6.45-3.45,8.55-6.45,5.09-7.26,15.51-22.14,20.45-29.2.97-1.39,1.32-3.12.98-4.77s-1.37-3.09-2.82-3.97h0c-3.04-1.85-6.98-1.06-9.08,1.81l-.79,1.08ZM361.63,302.49c-.16.39-.35.78-.57,1.14-1.11,1.82-2.89,3.13-4.96,3.64-6.1,1.49-8.99,2.2-8.99,2.2-.9.22-7.35,1.02-7.58.12-.22-.91,2.1-.16,3-.38,0,0,8.38-2.49,12.76-5.21,1.3-.6,2.83-1.07,3.76-2.01,1.63-.86,1.25-3.27.96-4.47,0,0,0,0,0,0-.61-2.5-4.43-3.21-6.93-2.59l-16.27,3.98c-7.4,1.81-13.74,6.58-17.53,13.18l-17.93,29.52,34.99,4.1,2.42-7.98c3.52-7.42,9.87-13.1,17.63-15.78,5.47-1.89,14.48-4.44,18.71-6.46,2.79-.96,3.72-2.11,5.41-4.53l19.15-28.91c.44-.62,1.5-2.55,1.35-3.29-.16-.74-.53-1.56-1.19-1.95l-.42-.32c-2.57-.27-3.15-.02-5.17,1.85l-10.69,15.34c-2,2.74-4.96,3.96-8.25,4.76-5.32,1.3-13.4,4.01-13.4,4.01-.08.02-.16.04-.24.04h0ZM362.79,298.75l14.67-20.15-.76-.66c-3.07-1.86-7.28.05-9.39,2.95l-8.65,11.88c1.61,1.08,2.84,2.74,3.34,4.77l.21,1.35.59-.14ZM380.8,291.69l8.62-11.89-1.2-.55c-3.83-1.34-7.19.22-9.33,3.15l-11.02,15.12,6.65-1.63c2.52-.62,4.75-2.11,6.28-4.2h0Z"/>
  <path class="cls-7" d="M220.2,291.4c-.03-.25-.12-.49-.27-.71,0,0-4.59-6.82-8.23-12.25-2.98-4.43-8.87-5.85-13.53-3.25h0c-.53.3-.99.72-1.32,1.22-3.09-1.86-7.05-2.04-10.39-.18h0c-.27.15-.52.33-.75.54l-.81-1.2c-1.98-2.95-5.9-3.88-9-2.16h0c-1.48.83-2.55,2.22-2.96,3.87-.41,1.64-.12,3.38.79,4.81l19.34,29.95c1.98,3.07,4.89,5.44,8.3,6.76,4.14,1.61,10.3,4,15.7,6.09,6.81,2.64,12.26,7.91,15.14,14.62,1.76,4.11,3.34,7.79,3.34,7.79.28.65.95,1.06,1.66,1.01l36.77-2.41c.57-.04,1.08-.36,1.36-.86.28-.5.29-1.1.02-1.61,0,0-9.97-19-16.64-31.72-3.97-7.57-10.87-13.17-19.08-15.51-5.46-1.55-11.65-3.32-16.11-4.59-1.11-.32-2.24-.38-3.31-.23h0ZM213.76,302.11c-.08,0-.16-.03-.24-.05,0,0-5.87-1.67-11.14-3.17-3.26-.93-8.27-3.6-10.16-6.41l-8.52-14.15c-2.14-2.3-4.7-4.24-6.27-3.36h0c-.66.37-2.35,1.07-2.08,2.58-.18.74.79,2.07,1.2,2.71l18.1,30.49c1.6,2.48,4.61,4.97,7.36,6.04,4.13,1.6,10.86,2.87,16.26,4.96,7.65,2.97,13.79,8.89,17.02,16.43l2.17,8.09,35.36-1.94-16.07-30.77c-3.54-6.75-6.09-11.88-17.86-15.06l-16.29-3.63c-2.48-.71-3.34-.55-5.49,1.3,0,0-1.67,1.63-1.67,1.63-.34,1.19-.27,2.16.33,3.24.6,1.08,3.86,3.49,5.05,3.83,6.04,1.72,13.1,4.72,13.1,4.72.9.26,1.92-.46,1.67.44-.26.89-3.39.22-4.28-.04,0,0-6.14-1.18-12.18-2.9-2.05-.58-3.78-1.96-4.82-3.82-.21-.37-.39-.76-.53-1.16h0ZM198.79,277.64c-.03.13.77,1.07.84,1.19l2.33,3.48,10.78,16.04.58.17.26-1.35c.57-2.01,1.86-3.62,3.51-4.64h0s-8.2-12.2-8.2-12.2c-2-2.98-6.51-5.17-9.65-3.42M187.29,278.64c-.04.15.51,1.19.6,1.32l7.12,10.64c1.45,2.15,3.62,3.72,6.11,4.43l6.59,1.88-10.44-15.52c-2.02-3.01-6.15-4.99-9.32-3.23"/>
  <rect class="cls-8" x="63.31" y="347.46" width="406.5" height="53.68"/>
  <g>
    <path class="cls-5" d="M202.9,141.95h-9.65v-55.69h21.93c6.25,0,10.89,1.64,13.9,4.92,3.02,3.28,4.53,7.15,4.53,11.61,0,5.09-1.63,9.21-4.9,12.36-3.27,3.16-7.41,4.73-12.43,4.73h-13.38v22.07ZM202.9,111.27h11.41c2.98,0,5.26-.76,6.82-2.28,1.57-1.52,2.35-3.55,2.35-6.08,0-2.28-.73-4.24-2.18-5.88-1.45-1.63-4.07-2.45-7.86-2.45h-10.55v16.69Z"/>
    <path class="cls-5" d="M277.46,141.95h-34.79v-55.69h34.44v8.28h-24.79v15.1h19.93v8.08h-19.93v15.59h25.14v8.65Z"/>
    <path class="cls-5" d="M327.5,141.95h-9.37l-20.32-35.58c-.31-.54-.82-1.43-1.53-2.65-.31-.54-.8-1.4-1.45-2.57v40.8h-7.77v-55.69h10.67l18.75,32.8c.16.27,1.29,2.27,3.41,6v-38.8h7.61v55.69Z"/>
    <path class="cls-5" d="M380.99,141.95h-9.37l-20.32-35.58c-.31-.54-.82-1.43-1.53-2.65-.31-.54-.8-1.4-1.45-2.57v40.8h-7.77v-55.69h10.67l18.75,32.8c.16.27,1.29,2.27,3.41,6v-38.8h7.61v55.69Z"/>
  </g>
  <g>
    <path class="cls-1" d="M167.97,380.42h-25.65v-43.35h7.91v36.27h17.74v7.08Z"/>
    <path class="cls-1" d="M182.01,380.42h-7.51v-43.35h7.51v43.35Z"/>
    <path class="cls-1" d="M192.17,380.42v-43.35h16.24c2.75,0,5.03.3,6.84.89,1.81.59,3.38,1.83,4.7,3.72,1.32,1.89,1.98,4.1,1.98,6.64,0,2.39-.67,4.47-2.01,6.24-1.34,1.77-3.2,2.9-5.56,3.38,2.93.53,5.15,1.77,6.66,3.72,1.51,1.95,2.26,4.25,2.26,6.92,0,3.35-1.05,6.16-3.16,8.43-2.11,2.28-5.35,3.41-9.72,3.41h-18.23ZM199.28,355.27h9.16c1.87,0,3.35-.58,4.44-1.75,1.09-1.16,1.63-2.65,1.63-4.45,0-1.99-.62-3.46-1.86-4.4-1.24-.94-2.7-1.41-4.37-1.41h-9.01v12ZM199.28,373.91h9.71c2.06,0,3.68-.56,4.87-1.68,1.19-1.12,1.79-2.64,1.79-4.54s-.61-3.31-1.82-4.48c-1.21-1.16-2.81-1.75-4.81-1.75h-9.74v12.45Z"/>
    <path class="cls-1" d="M263.63,380.42h-7.94l-6.47-17.82h-10.56v17.82h-7.51v-43.35h18.07c5.03,0,8.72,1.18,11.08,3.54,2.36,2.36,3.54,5.41,3.54,9.16,0,5.57-2.5,9.4-7.51,11.5l7.3,19.15ZM238.66,356.35h9.34c2.71,0,4.72-.59,6.04-1.78,1.32-1.19,1.98-2.81,1.98-4.89,0-1.91-.65-3.45-1.95-4.62-1.3-1.18-3.12-1.76-5.46-1.76h-9.95v13.05Z"/>
    <path class="cls-1" d="M305.03,380.42h-8.03l-3.33-10.32h-16.03l-3.27,10.32h-6.41l13.83-43.35h9.25l13.98,43.35ZM291.65,363.84l-6.08-19.34-6.08,19.34h12.15Z"/>
    <path class="cls-1" d="M343.52,380.42h-7.94l-6.47-17.82h-10.56v17.82h-7.51v-43.35h18.07c5.03,0,8.72,1.18,11.08,3.54,2.36,2.36,3.54,5.41,3.54,9.16,0,5.57-2.5,9.4-7.51,11.5l7.3,19.15ZM318.54,356.35h9.34c2.71,0,4.72-.59,6.04-1.78,1.32-1.19,1.98-2.81,1.98-4.89,0-1.91-.65-3.45-1.95-4.62-1.3-1.18-3.12-1.76-5.46-1.76h-9.95v13.05Z"/>
    <path class="cls-1" d="M359.72,380.42h-7.51v-43.35h7.51v43.35Z"/>
    <path class="cls-1" d="M396.96,380.42h-27.08v-43.35h26.81v6.45h-19.29v11.75h15.51v6.29h-15.51v12.13h19.57v6.73Z"/>
    <path class="cls-1" d="M400.07,369.97l7.3-1.62c.87,4.3,4.23,6.45,10.07,6.45,2.67,0,4.72-.55,6.15-1.65,1.44-1.1,2.15-2.46,2.15-4.1,0-1.19-.33-2.28-.98-3.29-.65-1.01-2.05-1.79-4.18-2.37l-7.97-2.16c-2.73-.74-4.74-1.58-6.04-2.52-1.3-.94-2.35-2.27-3.13-3.99-.78-1.71-1.18-3.54-1.18-5.49,0-3.87,1.38-6.98,4.15-9.32,2.77-2.34,6.31-3.51,10.62-3.51,3.58,0,6.78.81,9.6,2.44,2.82,1.63,4.62,3.94,5.39,6.92l-7.14,1.84c-1.1-3.28-3.66-4.92-7.69-4.92-2.34,0-4.13.51-5.36,1.52-1.23,1.02-1.85,2.31-1.85,3.87,0,2.48,1.93,4.21,5.8,5.21l7.08,1.84c4.29,1.12,7.17,2.78,8.64,4.97,1.47,2.19,2.2,4.61,2.2,7.26,0,4.25-1.54,7.61-4.63,10.05-3.08,2.45-7.08,3.67-11.98,3.67-4.13,0-7.75-.9-10.85-2.7-3.1-1.8-5.16-4.61-6.18-8.42Z"/>
  </g>
  <path class="cls-8" d="M410.59,267.67c-42.77,2.99-81.98,26.36-124.86,26.52-36.85.14-70.21-19.88-105.8-26.86,1.27-28.25,6.72-56.3,15.29-83.25,35.16,2.51,66.75,21.29,101.12,23.39,31.65,1.93,62.87-11.53,94.49-12.99,14.72,21.41,18.68,47.86,19.77,73.19Z"/>
  <path class="cls-4" d="M412.06,251.49c-.98-4.32-2.13-8.59-3.04-12.9-1.72-8.74-3.21-17.58-5.48-26.21-1.78-6.57-4.58-12.73-7.23-18.8-1.52-3.48-4.88-4.27-8.83-3.32-2.6.62-5.21,1.63-7.81,2.23-5.97,1.38-11.97,2.97-17.95,4.36-3.31.77-6.76,2.7-9.94,1.79-5-1.45-10.25-2.46-15.19-4.11-4.54-1.51-9.25-1.77-14.69-.24-7.5,1.77-16.27,5.59-21.97,10.9-1.79,1.63-3.54,3.25-5.4,4.88-2.19-7.24-2.3-7.84-8.96-12.09-10.41-5.26-16.83-7.14-28.45-7.56-5.74.44-11.1,1.82-16.66,2.53-1.2.15-2.66.39-3.83-.24-7.5-4.07-16.29-6.6-24.51-8.74-4.98-1.46-9.98-2.66-15-3.82-5.26-1.22-6.19-1.5-7.1,4.01-.1.61-.35,1.18-.49,1.79-2.99,11.61-6.12,23.23-7.43,35.18-1.37,13-2.89,25.98-4.45,38.96-.42,3.49-1.17,6.94-1.75,10.37,3.02,2.86,6.6,2.95,10.14,3.26,6.21.53,12.38,1.39,18.52,3,8.72,2.3,17.33,5.44,25.77,8.62,14.73,5.34,29.29,10.28,44.54,13.94.61.12,1.26.35,1.8.7,4.74,2.99,9.67,3.78,14.8,2.76,1.23-.25,2.52-.38,3.79-.39,4.35-.01,5.44-.99,6.49-5.25,6.48-.98,12.94-2.47,19.42-4.42,5.32-1.6,10.64-3.63,15.98-5.58,3.9-1.43,7.82-2.76,11.73-4.15,3.67-1.3,7.33-2.65,11-3.84,7.18-2.34,14.35-3.76,21.5-6.6,2.66-1.06,5.45-1.19,8.17-1.67,7.22-1.29,14.21-1.37,21.02-3.15,1.05-.27,2.1-.59,3.14-.95-.08-5.09-.55-10.3-1.66-15.23,0,0,0,0,0,0ZM406.55,263.68c-2.74,2.37-7.94,2.98-11.23,3.46-7.83,1.08-15.82,2.8-23.39,5.05-8.72,2.53-17.35,5.5-25.92,8.49-10.02,3.34-20.06,6.63-30.07,10.01-3.83,1.33-7.76,1.88-11.62,2.37-2.95.37-5.63.94-7.33,3.77-.2.33-.45.66-.74.91-2.69,2.2-12.95,2.31-15.73,0-1.68-1.4-3.33-1.89-5.31-2.05-2.24-.17-4.51-.83-6.75-1.42-13.81-4.02-27.2-8.93-40.66-13.98-7.33-2.72-14.67-5.31-22.04-7.35-5.36-1.48-10.74-2.53-16.15-3.34-1.97-.3-3.94-.69-6.36-1.01.28-6.55.23-12.43.83-18.18,1.09-9.65,2.34-19.26,3.68-28.88.76-5.33,1.8-10.58,2.92-15.77,1.2-5.56,2.68-11,3.94-16.49.35-1.54.39-3.2.61-5.2,12.28,1.76,24.18,5.09,36.1,8.46.03.31.06.61.09.92-10.42-1.15-20.67-2.8-31.03-4.45-1.93,12.6-3.88,25.19-5.68,37.81-1.11,7.93-1.9,15.95-2.48,23.93-.15,1.99.75,4.27,1.36,6.39.19.66,1.1,1.75,1.55,1.76,2.48.08,3.91,2.45,5.88,3.48,2.12,1.12,4.46,1.59,6.71,2.32,7.14,2.29,14.29,4.52,21.21,5.18,5.3.5,10.42.14,15.53-.19,4.41-.28,8.58-1.41,13.06-1.64,6.73-.34,12.81,3.15,18.2,8.4,1.85,1.8,3.48,3.81,4.93,6.08-1.61-1.17-3.23-2.35-4.82-3.6-5.95-4.9-16.73-7.88-24.21-5-2.27,1-4.56,1.45-7.46.78-11.54-2.69-23.08-5.44-34.79-7.3-2.68-.41-5.31-.25-8,.5.46.36.92.95,1.38,1.06,8.04,2.04,16.09,4.33,24.26,5.78,6.75,1.14,13.58,3,20.4,4.59,3,.7,5.58.5,7.76-.94,2.69-1.77,5.79-2.42,9.5-1.15,2.08.71,4.23,1.5,6.14,2.68,2.06,1.27,3.91,3.01,5.79,4.57,4.88,4.04,5.64,4.15,10.85.77-3.14-3.86-6.04-8.02-9.38-11.93-6.48-7.25-16.66-11.82-26.44-10.14-6.31,1.43-12.63,2.54-19.42,2.58-8.28.04-17.5-2.57-25.15-5.53-2.46-.86-4.92-1.74-7.8-2.65.85-10.91,1.72-21.79,2.82-32.67,1.44-10.56,3.1-21.05,4.79-31.57,2.47.58,5.32,1.46,8.13,2.03,8.27,1.9,17.65,3.27,26.16,2.66,2.08-.15,4.05-.64,6.03-1.11,5.51-1.31,11.36-1.76,17.44-1.79,6.71-.03,13.22,2.24,19.45,5.93,2.07,1.23,3.21,2.89,3.68,5.26.47,2.38,1.4,4.67,2.06,7.01.24.84.42,1.74.41,2.6-.25,12.9-.53,25.79-.78,38.69-.18,9.31-.31,18.62-.38,27.94-.01,1.9.3,3.82.54,5.72.08.62.45,1.2.63,1.82.41,1.36,1.39,1.82,2.66,1.65,1.54-.2,1.66-1.4,1.6-2.61-.15-3.06-.59-6.12-.46-9.16.67-14.4,1.42-28.8,2.15-43.21.07-1.4.03-2.81-.02-4.21-.18-5.1-.35-10.21-.62-15.31-.08-1.5-.48-2.98-.78-4.75,4.44-.34,7.56-3.9,11.16-6.57,7.88-4.64,15.7-8.96,25.31-7.53,4.43.5,8.42,2.12,12.61,3.18,4.31,1.09,8.52,2.37,12.94,3.2,6.93,1.29,14.32,1.13,22.04,0,3.15-.46,3.29-.25,4.17,2.5,1.53,4.77,3.43,9.38,4.71,14.3,1.93,7.39,3.42,15.01,5.19,22.54.87,3.68,1.94,7.29,3,11.29-3.97,1.58-7.96,2.23-11.92,3.24-13.28,2.95-26.12,4.6-39.71,5.13-3.26.04-6.53.14-9.79.14-5.74,0-11.15,2.6-16.3,6.11-2.67,1.81-5.14,3.94-7.61,5.94-.95.77-1.95,1.77-2.4,2.81-1.83,4.21-5.09,5.86-9.12,6.03-.25.01-.5.11-.74.21-.11.04-.2.16-.49.42,1.74,1.12,3.36,2.29,5.15,3.15,2.68,1.3,4.43.65,6.31-2.1.85-1.24,1.53-2.59,2.38-3.85.98-1.45,2.12-2.62,4.15-1.68-1.05,1.41-2,2.67-3.46,4.59,1.38-.55,2.16-.75,2.84-1.17,2.38-1.48,4.66-3.22,7.1-4.67,3.4-2.02,6.81-2.97,10.19-2.15,2.93.71,5.94-.48,8.92-2.6-.15-.56-.15-.97-.28-.97-3.2-.07-6.35-.55-9.63-.16-3.99.47-8.04,2.03-11.74,4.65-1.58,1.11-2.67,1.24-3.38-.65,6.77-4.42,13.4-8.15,21.05-8.07,8.56.13,17.35-.48,25.85-1.53,8.76-.82,18.05-2.32,26.42-5.07,3.93-1.27,8.02-1.6,11.94-1.92.33-6.3-2.64-12.42-3.95-18.34-1.44-6.48-2.59-13.04-3.81-19.57-1.15-6.17-3.08-12.04-4.61-18.04-.19-.74-.33-1.7-.02-2.44.84-1.96-.25-2.33-1.58-2.4-2.75-.15-5.54-.08-8.31-.06-4.92.03-9.84.2-14.77.43-.45.02-.87-.13-1.3-.2.04-.18.08-.37.11-.55,4.62-1.2,9.23-2.33,13.83-3.38,3.51-.81,7.02-1.58,10.51-2.31,2.78-.58,3.27-.36,4.28,2.07,1.57,3.75,3.37,7.41,4.7,11.32,1.13,3.33,1.96,6.86,2.55,10.42,2.46,13.28,5.55,26.34,8.85,39.43.73,2.85-.04,4.75-1.55,6.06h0Z"/>
  <g>
    <path class="cls-3" d="M219.58,178.23l8.35-3.78c-.22-4.6-1.95-11.05-5-17.79-3.18-7.02-7.49-13.65-10.9-16.78l-7.95,3.61c.1,4.63,2.24,12.23,5.43,19.26,3.06,6.74,6.76,12.28,10.08,15.48h0Z"/>
    <path class="cls-3" d="M210.01,138l-6.77-7.57,1.19,10.17,5.58-2.6Z"/>
    <path class="cls-3" d="M252.97,231.37l-2.74-6.04-6.64,3.02,2.74,6.04c.83,1.83,2.99,2.64,4.82,1.82,1.83-.83,2.65-3,1.82-4.83h0Z"/>
    <path class="cls-3" d="M250.2,223.83l-21.41-47.25-8.1,3.68,7.34,16.21c-.99-.48-2.48.16-2.17,1.55,2.25,10.44,5.93,20.73,11.29,29.99.97,1.67,3.73.43,2.75-1.25-.02-.04-.04-.07-.06-.11l1.56-.71.71,1.57,8.11-3.68ZM229.18,199l9.46,20.87-1.91.86c-3.34-6.92-5.83-14.26-7.55-21.73h0Z"/>
  </g>
  <rect class="cls-8" x="315.92" y="169" width="15.36" height="51.75" transform="translate(108.43 -115.6) rotate(24.22)"/>
  <rect class="cls-8" x="355.47" y="170.95" width="9.85" height="40.04" transform="translate(34.66 -54.49) rotate(9.08)"/>
  <path class="cls-3" d="M361.97,174c.1-.64.68-1.08,1.3-.98s1.03.7.93,1.34l-5.25,32.84c-.1.64-.68,1.08-1.3.98s-1.03-.7-.93-1.34l5.25-32.84ZM357.28,214.07l3.83,3.24c.32.27.46.69.4,1.09l-.81,5.12c-.07.46-.39.82-.8.95l-4.57,1.85c-.39.16-.81.08-1.11-.18l-3.83-3.24c-.32-.27-.45-.69-.39-1.09l.81-5.12c.07-.47.41-.83.82-.95l4.55-1.84c.39-.16.81-.08,1.11.18h0ZM357.76,217.52l-1.42-1.2-3.43,1.38-.6,3.78,2.83,2.39,3.43-1.39.6-3.78-1.42-1.19h0ZM360.92,150.54c-1.42.65-2.7,1.6-3.74,2.79-1.4,1.59-2.39,3.61-2.76,5.91-.29,1.84-.15,3.65.37,5.35.54,1.73,1.45,3.26,2.64,4.5.26.27.37.65.31,1.01l-6.09,38.14c-.07.42-.34.76-.7.91-1.51.82-2.83,2-3.85,3.44-.99,1.41-1.69,3.08-1.99,4.93-.5,3.11.26,6.11,1.88,8.46,1.62,2.35,4.12,4.04,7.09,4.51s5.88-.35,8.15-2.07c2.27-1.73,3.93-4.35,4.43-7.46.3-1.85.15-3.66-.35-5.31-.53-1.72-1.44-3.28-2.65-4.54-.26-.27-.37-.65-.31-1.01l6.09-38.14c.07-.42.34-.76.7-.91,1.51-.82,2.83-2,3.85-3.44.99-1.41,1.69-3.08,1.99-4.93.37-2.29.06-4.53-.78-6.47-.63-1.46-1.54-2.76-2.69-3.82l-1.03,6.46c-.04.28-.18.51-.36.69l-5.74,6.15c-.43.46-1.15.48-1.59.03-.1-.1-.17-.2-.22-.32l-3.57-7.7c-.1-.23-.13-.47-.09-.7l1.03-6.46h0ZM333.56,164.04l5.59,2.58,10.81-24.89c.13-.3.36-.51.62-.62l6.88-2.83,1.2-11.07-9.6-4.42-7.21,8.31,2.54,7.16c.1.3.08.61-.03.89l-10.81,24.9h0ZM327.34,173.72c.25-.59.93-.86,1.49-.6s.81.95.56,1.54l-17.48,40.24c-.25.59-.93.86-1.49.6s-.81-.95-.56-1.54l17.48-40.24ZM334.24,176.9c.25-.59.93-.86,1.49-.6s.81.95.56,1.54l-17.48,40.24c-.25.59-.93.86-1.49.6s-.81-.95-.56-1.54l17.48-40.24ZM341.8,170.4l-12.74-5.87c-.98-.45-2.06-.44-2.99-.06-.94.38-1.75,1.13-2.2,2.16l-18.55,42.71c-1.24,2.86-1.26,5.98-.28,8.7.98,2.71,2.95,5.02,5.67,6.28,2.74,1.26,5.74,1.24,8.35.18,2.62-1.06,4.87-3.15,6.11-6.01l18.55-42.72c.44-1.03.45-2.15.1-3.12-.35-.97-1.05-1.79-2.04-2.25h0Z"/>
  <g>
    <path class="cls-3" d="M283.81,205.23c-2.66,3.16-6.72,4.92-11.04,4.85h-.17c-7.72-.11-14.51-5.94-15.72-13.48l-2.53-15.33c-1.26-7.88,3.87-14.93,11.63-16.24l.94,10.84c-.86.49-1.62,1.06-2.07,2.02-.59,1.14-.73,2.5-.27,3.89.41,1.06.97,1.94,1.83,2.62,1.34,1.07,3.02,1.52,4.64,1.05,2.7-.64,4.14-3.45,3.22-6.23-.17-.57-.91-1.02-1.49-.89-.64.22-.98.84-.81,1.41.46,1.39-.32,2.97-1.7,3.33s-3.04-.51-3.5-1.9c-.19-.74-.13-1.42.11-2.11.33-.61.86-1.08,1.6-1.22.57-.13.83-.66.76-1.15l-.99-11.76c3.63-.04,7.22,1.34,10.01,3.55,3.07,2.44,5.19,5.87,5.95,9.84l2.7,15.32c.71,4.22-.44,8.43-3.1,11.59h0Z"/>
    <path class="cls-6" d="M251.01,151.98c-1.44-1.14-2.52-2.73-2.79-4.56-.42-2.23.12-4.29,1.67-5.85,1.24-1.36,3-2.01,4.84-2.16l18.68-1.28c1.17-.1,2.29-.52,3.1-1.35,1.02-1.09,1.47-2.64,1.25-4.13-.47-2.57-2.94-4.38-5.52-4.08l-26.56,2.34c-.67.05-1.24-.4-1.34-1.07s.33-1.2,1-1.26l26.37-2.49c3.85-.31,7.47,2.41,8.27,6.13.37,1.9,0,3.95-1.22,5.47s-2.93,2.51-4.93,2.67l-19.02,1.3c-1.17.1-2.29.52-3.1,1.35-1.09,1.18-1.47,2.64-1.15,4.21.44,2.4,3.08,4.2,5.52,4.08,1.43-.03,2.94-.16,2.94-.16,2.68-.22,5.31,1.58,6.76,3.9.22.32.36.73.48.97l1.28,3.51c.34.56.1,1.25-.45,1.55-.72.31-1.43.03-1.67-.45l-1.5-4.41c-.84-1.69-2.79-2.8-4.62-2.65l-3.11.17c-1.86-.02-3.73-.62-5.17-1.76h0Z"/>
  </g>
  <g>
    <path class="cls-2" d="M169.79,385.73v44.76c0,6.06-.68,10.72-2.04,13.98-1.36,3.27-3.99,6.08-7.88,8.45-3.9,2.36-8.65,3.55-14.26,3.55s-10.35-1.02-14.01-3.06c-3.66-2.04-6.29-4.84-7.89-8.4-1.6-3.55-2.4-8.09-2.4-13.6v-45.68h12.81v44.76c0,6.12,1.28,10.15,3.85,12.07,2.57,1.92,5.55,2.88,8.96,2.88,3.91,0,7.04-1.03,9.39-3.09s3.52-6.01,3.52-11.87v-44.76h9.95Z"/>
    <path class="cls-2" d="M238.41,455.39h-12.2l-26.44-44.5c-.41-.68-1.07-1.79-1.99-3.32-.41-.68-1.04-1.75-1.89-3.21v51.03h-10.1v-69.66h13.88l24.39,41.03c.2.34,1.68,2.84,4.44,7.5v-48.53h9.9v69.66Z"/>
    <path class="cls-2" d="M267.95,455.39h-12.55v-69.66h12.55v69.66Z"/>
    <path class="cls-2" d="M309.28,455.39h-13.47v-58.89h-18.52v-10.77h50.52v10.77h-18.52v58.89Z"/>
    <path class="cls-2" d="M382.39,455.39h-45.27v-69.66h44.81v10.36h-32.25v18.88h25.92v10.1h-25.92v19.49h32.71v10.82Z"/>
    <path class="cls-2" d="M394.53,455.39v-69.66h25.67c9.49,0,17.11,3.36,22.86,10.08,5.75,6.72,8.63,15.01,8.63,24.88s-2.96,18.12-8.88,24.75c-5.92,6.63-14.39,9.95-25.42,9.95h-22.86ZM407.44,445.13h10.46c5.61,0,10.38-2.11,14.29-6.33,3.91-4.22,5.87-10.49,5.87-18.83,0-6.8-1.71-12.56-5.13-17.28-3.42-4.71-7.94-7.07-13.55-7.07h-11.94v49.5Z"/>
  </g>
</svg>