<?xml version="1.0" encoding="UTF-8"?>
<svg id="Layer_2" data-name="Layer 2" xmlns="http://www.w3.org/2000/svg" xmlns:xlink="http://www.w3.org/1999/xlink" viewBox="0 0 843.64 407.83">
  <defs>
    <style>
      .cls-1 {
        clip-path: url(#clippath);
      }

      .cls-2 {
        fill: none;
      }

      .cls-2, .cls-3, .cls-4 {
        stroke-width: 0px;
      }

      .cls-3 {
        fill: #c2c1c0;
      }

      .cls-4 {
        fill: #fff;
      }
    </style>
    <clipPath id="clippath">
      <circle class="cls-2" cx="426.4" cy="228.5" r="206.08"/>
    </clipPath>
  </defs>
  <g class="cls-1">
    <path class="cls-3" d="M343.14,151.53l-74.44-93.72-24.21-4.93,4.93,24.21,93.72,74.44ZM314.22,201.58l-111.31-43.95-23.46,7.84,16.43,18.52,118.33,17.59ZM325.37,174.64l-96.15-71.24-24.68,1.51,11.03,22.12,109.8,47.61ZM318.63,24.02l-22.12-11.03-1.51,24.68,71.24,96.15-47.61-109.8ZM310.44,230.49l-118.92-13.64-20.61,13.64,20.61,13.64,118.91-13.64ZM195.88,277l-16.43,18.52,23.46,7.84,111.31-43.95-118.33,17.6ZM533.76,230.49l118.92,13.64,20.61-13.64-20.61-13.64-118.92,13.64ZM648.32,183.98l16.43-18.52-23.46-7.84-111.31,43.95,118.33-17.59ZM375.59,4.28l-18.52-16.43-7.84,23.46,43.95,111.31-17.6-118.33ZM628.58,127.02l11.03-22.12-24.68-1.51-96.1,71.24,109.74-47.61ZM549.2,37.6l-1.51-24.68-22.12,11.03-47.67,109.8,71.3-96.16ZM594.78,77.09l4.93-24.21-24.21,4.93-74.44,93.72,93.72-74.44ZM249.42,383.9l-4.93,24.21,24.21-4.93,74.44-93.72-93.72,74.44ZM501.07,309.46l74.44,93.72,24.21,4.93-4.93-24.21-93.72-74.44ZM525.57,436.97l22.12,11.03,1.51-24.68-71.24-96.1,47.61,109.74ZM468.61,456.71l18.52,16.43,7.84-23.46-43.95-111.31,17.59,118.33ZM529.99,259.41l111.31,43.95,23.46-7.84-16.43-18.52-118.33-17.59ZM518.84,286.35l96.15,71.24,24.68-1.51-11.03-22.12-109.8-47.61ZM487.13-12.16l-18.52,16.43-17.59,118.39,43.95-111.31-7.84-23.52ZM295,423.39l1.51,24.68,22.12-11.03,47.67-109.8-71.3,96.16ZM357.07,473.15l18.52-16.43,17.59-118.39-43.95,111.31,7.84,23.52ZM408.46-.08l13.64,118.92L435.74-.08l-13.64-20.61L408.46-.08ZM408.46,461.07l13.64,20.61,13.64-20.61-13.64-118.92-13.64,118.92ZM215.62,333.97l-11.03,22.12,24.68,1.51,96.15-71.24-109.8,47.61Z"/>
  </g>
  <path class="cls-4" d="M403.88,369.03c-3.59-5.87-7.18-11.75-10.77-17.62-2.86-4.68-5.5-9.7-9.95-13.07-8.03-6.08-18.53-5.24-27.43-9.15-.58-.25-1.14-.35-1.68-.34-4.9-6.35-10.17-12.4-15.83-18.11-3.38-3.41-8.49,1.75-5.25,5.25.14.15.28.31.42.47-1.05.04-2.08.13-3.1.24-1.09-1.01-2.2-1.99-3.34-2.94-.64-.58-1.32-1.13-2.04-1.64-2.73-1.93-6.1,1.29-5.62,4-1.64-1.87-3.38-3.66-5.22-5.33-3.25-2.94-7.54.71-5.83,4.5,3.61,8,8.58,15.35,14.71,21.65.24.25.49.49.74.73,1.86,4.76,3.5,9.67,6.92,13.57,1.82,2.08,4.14,3.72,6.79,4.56,3.66,1.17,7.55.86,11.19,2.28,6.99,2.72,12.47,8.39,17.63,13.62,2.52,2.55,6.9,14.72,7.13,11.97,3.61,1.54,16.06-.22,19.84.46,5.17.93,9.97-3.68,15.13-2.75,3.02.54-2.61-9.39-4.43-12.35ZM344.41,334.1c-1.23-1.49-2.37-3.25-3.35-4.8,1.12,1.6,2.23,3.2,3.35,4.8ZM366.82,340.15c-.5-.16-1-.3-1.51-.44.09-.16.17-.32.24-.49.49.11.98.21,1.47.32-.08.19-.15.39-.2.6Z"/>
  <path class="cls-4" d="M523.58,315.59c-1.45,1.92-2.94,3.81-4.47,5.66.71-1.38,1.12-2.91,1.01-4.67-.17-2.85-3.01-4.57-5.59-3.21-2.21,1.17-4.34,2.51-6.34,4.02.3-1.5-.55-3.17-1.8-3.98-3.48-2.23-7.13-.18-9.4,2.76-.21.27-.4.54-.6.81-3.04,2.21-5.49,5.08-7.2,8.35-1.3,1.29-2.59,2.58-3.89,3.87-.76.75-1.51,1.5-2.27,2.26-.17-.15-.33-.31-.51-.45-1.63-1.35-4.79-1.64-5.84.75-.93,2.11-3.79,1.42-5.71,1.53-2.24.13-4.47.48-6.31,1.84-.88.65-1.61,1.46-2.16,2.35-3.83-1.72-8.25-.11-10.58,3.28-1.77,1.1-2.52,3.62-1.58,5.28.06,2.43,1.11,4.76,2.71,6.69-.18.54-.37,1.07-.57,1.59-.31-.09-.64-.17-.99-.2-5.21-.53-9.55,2.54-12.6,6.5-3.16,4.11-4.56,10.1-8.99,13.1-2.72,1.84-3.33,8.89.66,8.41,5.59-.66,9.7.87,15.29,1.67.75.11,4.26.22,4.86,0,4.61,1.29,8.25,2.57,12.12,0,2.75-1.83,5.64-9.04,7.52-11.69,1.68-2.37,3.49-5.49,6.33-6.61,3.54-1.4,3.55-7.73-.99-7.3-.04,0-.07,0-.11,0,.03-.18,5.56,3.58,5.57,3.39,2.33-.69-.89-5.57,1.36-6.66.39,1.53,1.69,2.81,3.53,2.81,2.84,0,5.53-.42,8.14-1.25.11.01.22.03.33.03,8.19.27,14.38-4.64,19.38-11.78,5.98-8.54,10.42-17,16.1-25.41,2.73-4.04-3.61-7.48-6.42-3.75ZM498.06,342.19c-.19-.51-.47-.98-.83-1.36.98-.5,1.95-1,2.93-1.5.67.07,1.36-.02,1.98-.29-1.35,1.23-2.66,2.36-4.08,3.15ZM466.57,346.93c-.13.05-.24.11-.36.17-.07-.11-.15-.22-.22-.34.43-.05.86-.1,1.29-.14-.24.1-.48.21-.71.31ZM462.47,370.38c-1.74,2.21-3.52,3.96-6.52,3.56-1.46-.2-2.92-.56-4.37-1.02.14-.66.33-1.31.55-1.95,1.17-1.22,2.11-2.64,2.77-4.21,3.52-.05,3.53.02,7.04-.17-.97,1.31,1.58,2.47.53,3.8Z"/>
  <rect class="cls-4" x="193.42" y="208.07" width="442.44" height="247.78"/>
  <path class="cls-4" d="M539.39,303.9c-41.69,2.91-79.92,25.69-121.72,25.85-35.92.14-68.44-19.38-103.14-26.19,1.24-27.53,6.55-54.88,14.9-81.16,34.27,2.45,65.07,20.75,98.57,22.8,30.85,1.89,61.29-11.24,92.11-12.66,14.35,20.87,18.21,46.66,19.27,71.35Z"/>
  <rect class="cls-4" x="447.1" y="207.72" width="14.97" height="50.45" transform="translate(135.57 -165.98) rotate(24.22)"/>
  <rect class="cls-4" x="485.66" y="209.62" width="9.6" height="39.03" transform="translate(42.32 -74.54) rotate(9.08)"/>
</svg>