<?xml version="1.0" encoding="UTF-8"?>
<svg id="Layer_4" data-name="Layer 4" xmlns="http://www.w3.org/2000/svg" viewBox="0 0 843.64 407.83">
  <defs>
    <style>
      .cls-1 {
        stroke: #fff;
        stroke-miterlimit: 10;
        stroke-width: .5px;
      }

      .cls-2 {
        stroke-width: 0px;
      }
    </style>
  </defs>
  <path class="cls-2" d="M383.83,191.13c-1.4-1.11-2.46-2.66-2.72-4.44-.41-2.18.12-4.19,1.63-5.7,1.21-1.33,2.93-1.96,4.72-2.1l18.21-1.24c1.14-.09,2.23-.51,3.02-1.31,1-1.06,1.43-2.57,1.22-4.03-.45-2.5-2.86-4.27-5.38-3.98l-25.9,2.28c-.65.05-1.21-.39-1.31-1.04s.32-1.17.97-1.23l25.71-2.43c3.75-.31,7.28,2.35,8.07,5.97.36,1.85,0,3.85-1.19,5.34s-2.85,2.44-4.81,2.6l-18.54,1.27c-1.14.09-2.23.51-3.02,1.31-1.07,1.15-1.43,2.57-1.12,4.1.43,2.34,3,4.09,5.38,3.98,1.4-.03,2.86-.15,2.86-.15,2.61-.21,5.18,1.54,6.59,3.8.21.31.35.71.47.94l1.25,3.42c.33.55.1,1.22-.44,1.51-.7.3-1.4.03-1.63-.44l-1.46-4.3c-.82-1.65-2.72-2.73-4.51-2.58l-3.03.17c-1.82-.02-3.64-.6-5.04-1.72h0Z"/>
  <g>
    <path class="cls-1" d="M353.19,216.72l8.14-3.69c-.21-4.48-1.9-10.77-4.87-17.34-3.1-6.84-7.3-13.31-10.63-16.35l-7.75,3.51c.1,4.51,2.19,11.93,5.29,18.77,2.98,6.57,6.59,11.97,9.82,15.09h0Z"/>
    <path class="cls-1" d="M343.86,177.5l-6.6-7.38,1.16,9.91,5.44-2.53Z"/>
    <path class="cls-1" d="M385.74,268.52l-2.67-5.89-6.47,2.94,2.67,5.89c.81,1.78,2.91,2.58,4.7,1.77,1.79-.81,2.58-2.92,1.77-4.71h0Z"/>
    <path class="cls-1" d="M383.04,261.17l-20.87-46.06-7.9,3.59,7.16,15.8c-.96-.47-2.41.16-2.12,1.51,2.19,10.18,5.78,20.2,11.01,29.24.94,1.63,3.63.42,2.68-1.22-.02-.04-.04-.07-.06-.11l1.52-.69.69,1.53,7.9-3.59ZM362.55,236.97l9.22,20.34-1.86.84c-3.26-6.75-5.68-13.9-7.36-21.18h0Z"/>
  </g>
  <path class="cls-1" d="M492,212.59c.1-.62.67-1.05,1.26-.96s1,.68.9,1.3l-5.12,32.02c-.1.62-.67,1.05-1.26.96s-1-.68-.9-1.3l5.12-32.02ZM487.42,251.66l3.73,3.16c.31.26.45.67.39,1.06l-.79,4.99c-.07.45-.38.79-.78.92l-4.46,1.8c-.38.15-.79.07-1.08-.17l-3.74-3.16c-.31-.26-.44-.67-.38-1.06l.79-4.99c.07-.45.4-.81.8-.93l4.43-1.79c.38-.15.79-.07,1.08.17h0ZM487.89,255.01l-1.38-1.17-3.35,1.35-.59,3.69,2.76,2.33,3.34-1.35.59-3.69-1.38-1.16h0ZM490.97,189.72c-1.39.63-2.63,1.56-3.65,2.72-1.36,1.55-2.33,3.52-2.69,5.76-.29,1.8-.14,3.56.36,5.21.53,1.68,1.41,3.17,2.57,4.38.26.27.36.64.3.99l-5.94,37.18c-.07.41-.34.74-.68.89-1.47.8-2.76,1.95-3.75,3.35-.97,1.37-1.65,3-1.94,4.81-.48,3.03.25,5.96,1.84,8.25,1.58,2.29,4.01,3.93,6.91,4.4,2.9.46,5.73-.34,7.94-2.02,2.22-1.69,3.83-4.24,4.32-7.27.29-1.8.15-3.56-.34-5.17-.52-1.68-1.41-3.2-2.59-4.42-.26-.27-.36-.64-.3-.99l5.94-37.18c.07-.41.34-.74.68-.89,1.47-.8,2.76-1.95,3.75-3.35.97-1.37,1.65-3,1.94-4.81.36-2.23.05-4.41-.76-6.31-.61-1.42-1.5-2.69-2.62-3.73l-1.01,6.3c-.04.27-.17.5-.35.67l-5.6,5.99c-.42.45-1.12.47-1.55.03-.09-.1-.16-.2-.22-.32l-3.48-7.51c-.1-.22-.13-.46-.09-.68l1-6.29h0ZM464.3,202.88l5.45,2.51,10.54-24.27c.12-.29.35-.5.61-.6l6.7-2.76,1.17-10.79-9.36-4.31-7.03,8.1,2.48,6.98c.1.29.08.6-.03.86l-10.54,24.27h0ZM458.24,212.32c.25-.58.9-.84,1.45-.59s.79.93.54,1.5l-17.04,39.23c-.25.58-.9.84-1.45.59s-.79-.93-.54-1.5l17.04-39.23ZM464.96,215.42c.25-.58.9-.84,1.45-.59s.79.93.54,1.5l-17.04,39.23c-.25.58-.9.84-1.45.59s-.79-.93-.54-1.5l17.04-39.23ZM472.33,209.09l-12.42-5.72c-.96-.44-2-.43-2.92-.06-.92.37-1.71,1.1-2.14,2.1l-18.08,41.64c-1.21,2.79-1.23,5.83-.27,8.48.95,2.64,2.87,4.89,5.53,6.12,2.68,1.23,5.59,1.21,8.14.17,2.56-1.03,4.75-3.07,5.96-5.86l18.08-41.64c.43-1,.44-2.09.1-3.04-.34-.94-1.03-1.75-1.99-2.2h0Z"/>
  <path class="cls-1" d="M415.81,243.04c-2.59,3.08-6.55,4.79-10.76,4.73h-.16c-7.53-.11-14.15-5.79-15.32-13.14l-2.47-14.94c-1.22-7.68,3.78-14.55,11.34-15.83l.91,10.57c-.84.48-1.58,1.03-2.02,1.97-.58,1.11-.71,2.43-.26,3.79.4,1.03.94,1.89,1.78,2.56,1.31,1.04,2.94,1.48,4.52,1.02,2.63-.62,4.04-3.36,3.14-6.07-.17-.56-.89-.99-1.45-.86-.63.22-.95.81-.79,1.37.45,1.36-.31,2.89-1.66,3.25s-2.96-.49-3.41-1.85c-.19-.72-.12-1.38.11-2.06.32-.6.83-1.05,1.56-1.19.56-.13.81-.64.74-1.12l-.96-11.46c3.54-.04,7.04,1.31,9.75,3.46,2.99,2.38,5.06,5.73,5.8,9.6l2.63,14.93c.7,4.12-.43,8.22-3.02,11.3h0Z"/>
</svg>